#!OML:ASF F:\VICON\USERDATA\INSTALL\rory3\rory3.ASF
:FULLY-SPECIFIED
:DEGREES
62
root 0.9879373544551169 17.246978965270085 18.34597348899692 -3.3001594590833783 -5.050859209157755 -4.475876468050593
lfemur -18.05931217046399 -2.8541686459128184 -16.368591201270103
ltibia 38.77412724455324
lfoot -2.140837733610743 -8.727332159169467
ltoes -19.248596746917716
rfemur -4.01485872056157 2.509198723435772 28.937445496508715
rtibia 41.00183333018519
rfoot 0.1717087240530537 -9.654366929984104
rtoes 5.22988116388195
lowerback 11.91867603915697 2.1513999770709105 3.718229186701059
upperback 0.1815814993468367 3.3957560271960254 1.6034731548645587
thorax -6.191699235841145 1.5419241785827091 -1.5319825611689437
lowerneck -17.25774001199434 -3.244643001202002 -1.3882556521768472
upperneck 22.044063286490015 -4.532104603107272 1.4575700537121565
head 9.850858699705142 -2.079443194443098 0.16014391261673877
lclavicle 2.9685513325228393e-16 5.375763387665857e-17
lhumerus -33.940505004496984 3.625246462138448 81.16346237597288
lradius 31.296451594987577
lwrist 10.894383081482328
lhand -29.629654614911182 18.9435931803796
lfingers 7.125020000000001
lthumb -2.837299663349056 48.691755596586596
rclavicle 3.014950777677309e-16 5.661957380361046e-17
rhumerus -25.63475326997738 -15.488001024029835 -79.13977253584123
rradius 33.61687376769568
rwrist -0.4093728397196341
rhand -19.1406226349982 24.262043876485897
rfingers 7.125020000000001
rthumb 7.208827339952277 -5.392605708236922
63
root 0.9874303042568494 17.66032246458881 12.8642316946475 -2.7094145269066976 -5.2526995637437865 -2.9496333383433244
lfemur -16.959998495507843 -3.4689917339086387 -18.882319498189347
ltibia 39.34232534754589
lfoot -0.3915885473869114 -8.864639512359709
ltoes -17.070128384137753
rfemur -6.172376349720191 2.4780886521279752 26.32492611803455
rtibia 45.98239392978271
rfoot 1.5664703038658727 -9.942643701164986
rtoes 6.2091461601698015
lowerback 11.292994272167167 2.0338105289106885 2.7854691838395027
upperback 0.45706211554297255 3.034028289071003 1.3543739208588672
thorax -5.887370805473429 1.4063554030912981 -0.9996538401726152
lowerneck -17.08784273117674 -3.2888040234151785 -1.4083393695394495
upperneck 22.09464403102746 -4.6421303761003045 1.5624407066786552
head 9.863188054769303 -2.1204624446894327 0.1770039265976317
lclavicle 2.9649799134770166e-16 5.3507017940795907e-17
lhumerus -33.70468004703759 3.4020718355591466 81.09349006528008
lradius 31.549333876028555
lwrist 10.086676874760812
lhand -29.452656766752366 18.69050869349733
lfingers 7.125020000000001
lthumb -2.548831205632552 48.60052541762464
rclavicle 3.013087771164676e-16 5.65407895632211e-17
rhumerus -26.45585227093747 -16.026191248928274 -79.17021572148217
rradius 33.95438111094254
rwrist -0.3022966396564182
rhand -19.13296731001193 24.396437388836905
rfingers 7.125020000000001
rthumb 7.140185533847339 -5.284604393805301
64
root 1.005846337871081 17.89888167789548 10.862989561720575 -2.0892506615880118 -5.441496024291095 -1.5281916576339498
lfemur -14.17840927830744 -3.795167912687786 -21.04276833687777
ltibia 38.53874290416969
lfoot 1.719440958189586 -8.321271963355017
ltoes -14.90012493148275
rfemur -9.708241715319577 2.0554799708270783 23.810922893246612
rtibia 51.22228546710063
rfoot 2.0225802925366034 -10.53150505781705
rtoes 6.969310553107607
lowerback 10.746629214135295 1.9296398136671646 1.9494421900816286
upperback 0.5309446736160877 2.765753880429939 1.1677164620012457
thorax -5.743194517141379 1.3007999070400418 -0.6022789483911606
lowerneck -16.846339696170453 -3.32390105510877 -1.432764632639337
upperneck 22.196514499788986 -4.7326668711719915 1.6465026667315983
head 9.885653376203534 -2.1565698373906956 0.19256785722892755
lclavicle 2.961526527362376e-16 5.3260701405584255e-17
lhumerus -33.48528632212145 3.309636890650433 80.88978521873453
lradius 31.839607901884534
lwrist 9.55845387698498
lhand -29.39635970550906 17.974659531711122
lfingers 7.125020000000001
lthumb -2.3614365671571145 48.1533882628262
rclavicle 3.025286202480346e-16 5.742446164827867e-17
rhumerus -27.36852947839472 -16.63418371239743 -79.02953224771983
rradius 33.77496188747809
rwrist 0.05135124404526792
rhand -19.06080249276904 24.396566935516162
rfingers 7.125020000000001
rthumb 7.155989669495725 -5.320352602130458
65
root 1.0219494190562546 18.05057309231996 11.128029534387295 -2.1338172258888353 -5.602470978125074 -1.4953799188761658
lfemur -11.704011049198899 -3.485144219074565 -21.682986083053553
ltibia 37.96855298224133
lfoot 1.14291077380478 -7.470419676381346
ltoes -14.773804787074255
rfemur -13.46254113268965 1.745442625197819 23.026347781694952
rtibia 55.096858712107945
rfoot 1.6625763663838393 -11.111525153871419
rtoes 7.175921724407595
lowerback 10.858035398153685 1.8551301581024147 1.953430954495736
upperback 0.440559648561989 2.68175174967772 1.1757729323548802
thorax -5.816698283965945 1.2760247625053451 -0.45571977492492044
lowerneck -16.635306593996386 -3.331644995159318 -1.467141935451156
upperneck 22.313537369742534 -4.773560585105961 1.726346666019256
head 9.909366283847293 -2.1745050573935676 0.21528054306020258
lclavicle 2.9665016225801797e-16 5.360992032224078e-17
lhumerus -33.21720451892697 3.28733586680513 80.66571578256115
lradius 32.116191568318115
lwrist 9.402754414860109
lhand -29.390492652144335 17.2627232679093
lfingers 7.125020000000001
lthumb -2.360797002145882 47.48586935117909
rclavicle 3.0420148474725983e-16 5.857274767451774e-17
rhumerus -28.448696668171408 -17.330841822051177 -79.03445597290066
rradius 33.42540944296955
rwrist 0.5078605931952573
rhand -18.95536133039988 24.201130202786803
rfingers 7.125020000000001
rthumb 7.236566198798942 -5.542756291705661
66
root 0.999632426330511 18.110183256375255 9.185582049552103 -2.0185828367314835 -6.568058614019027 -1.9486714302651718
lfemur -9.768294351358625 -2.7575894187715395 -21.569565910517152
ltibia 37.79743996303376
lfoot -2.3959928071970307 -4.710249444430631
ltoes -15.505491138846052
rfemur -17.22176088412284 2.126400894596213 23.092998782659766
rtibia 57.12331361306343
rfoot 0.687518567253286 -11.381930151686227
rtoes 6.841336254554682
lowerback 11.541564865304679 1.8576194848867884 1.727359903012443
upperback 0.4323086866348917 2.6759233791650257 1.191543219499406
thorax -5.933156219506365 1.29188192760014 -0.29646109964382306
lowerneck -16.524712892277837 -3.299867671417154 -1.503340862950657
upperneck 22.342360017170726 -4.740051725264006 1.806612990255793
head 9.901666914871349 -2.162858204390462 0.2510125581796663
lclavicle 2.97608370361374e-16 5.4281960327168593e-17
lhumerus -32.801798881327436 3.1788031368526934 80.50648454633497
lradius 32.23532173888536
lwrist 9.593378949755852
lhand -29.45551909899085 16.782827189658246
lfingers 7.125020000000001
lthumb -2.4965267244791702 46.92280905207827
rclavicle 3.0539445729649203e-16 5.934474356442043e-17
rhumerus -29.037753160219726 -17.766596985608455 -78.93615086817049
rradius 32.591228449947685
rwrist 1.1670569854573465
rhand -18.78827909322681 23.847033139648847
rfingers 7.125020000000001
rthumb 7.37566906426027 -5.943812171138209
67
root 1.0147665305360456 18.079283125778502 10.658755645808705 -2.2416612691184756 -6.887553709172541 -0.7168267844162308
lfemur -7.474145435356308 -2.056668117123389 -23.113245514081044
ltibia 37.140857365412536
lfoot -5.045272515352409 -4.067017657994789
ltoes -15.654651025497088
rfemur -20.673657458921213 1.8670660699313388 22.02872695832057
rtibia 57.24283490540756
rfoot -0.44026287290892263 -11.350810218943298
rtoes 6.508725353535602
lowerback 12.016056987390058 1.674798671350428 -0.10946453239165566
upperback 0.6162886550192279 2.211764982311597 0.9916832103142946
thorax -5.8963064492942365 1.09881652302226 0.2782987625123492
lowerneck -16.501778346508583 -3.236557008817603 -1.5506486294535957
upperneck 22.230803764082577 -4.646396640584412 1.8972242666424624
head 9.848940686015673 -2.1240232268559 0.30276613649377987
lclavicle 2.9812838869606994e-16 5.4654047885051466e-17
lhumerus -32.233889384588686 3.075954682150558 80.3998804998573
lradius 32.14190011455421
lwrist 9.979574198496039
lhand -29.53763713256569 16.70855924598652
lfingers 7.125020000000001
lthumb -2.6482307727311545 46.75618272211146
rclavicle 3.0509286681580237e-16 5.908006679912453e-17
rhumerus -29.60614914303684 -18.219570325212025 -79.0007455478774
rradius 31.82545857446775
rwrist 1.8630898012264758
rhand -18.545837872425807 23.36489843945268
rfingers 7.125020000000001
rthumb 7.600451926028168 -6.437497498106611
